<svg width="184" height="132" viewBox="0 0 184 132" fill="none" xmlns="http://www.w3.org/2000/svg">
<path fill-rule="evenodd" clip-rule="evenodd" d="M144.885 90.8996C145.318 90.5228 145.861 90.2945 146.433 90.2481L146.446 90.2471L169.355 88.6612C169.702 88.6374 170.049 88.71 170.357 88.871C170.662 89.0303 170.918 89.27 171.096 89.564C171.098 89.567 171.1 89.5701 171.102 89.5732L171.103 89.5764C171.281 89.8742 171.373 90.2152 171.369 90.5618C171.365 90.9095 171.265 91.2494 171.08 91.5439L158.85 111.003C158.539 111.486 158.081 111.856 157.544 112.06C157.007 112.264 156.419 112.29 155.866 112.136C155.313 111.982 154.823 111.655 154.469 111.202C154.115 110.75 153.915 110.197 153.898 109.623C153.898 109.608 153.898 109.594 153.898 109.58L153.996 99.8071L145.346 95.2856C145.334 95.2789 145.321 95.2719 145.308 95.2647C144.811 94.9783 144.417 94.5402 144.186 94.0144C143.955 93.4886 143.898 92.9027 144.024 92.3423C144.15 91.7819 144.451 91.2763 144.885 90.8996ZM167.441 90.5086L146.603 92.395C146.49 92.4052 146.383 92.4506 146.297 92.5249C146.211 92.6003 146.15 92.7014 146.125 92.8135C146.1 92.9256 146.112 93.0427 146.158 93.1479C146.202 93.2482 146.275 93.3325 146.369 93.3898L155.26 97.7958L167.441 90.5086ZM156.32 99.6713L168.547 92.3563L157.039 109.839C156.976 109.934 156.886 110.006 156.78 110.046C156.673 110.087 156.555 110.093 156.444 110.062C156.334 110.031 156.236 109.965 156.165 109.875C156.097 109.789 156.058 109.684 156.051 109.575L156.32 99.6713Z" fill="#444954" style="fill:#444954;fill:color(display-p3 0.2667 0.2863 0.3294);fill-opacity:1;"/>
<path d="M83.3248 34.9157C71.7182 46.6018 51.2098 75.0176 62.0292 95.1919C75.5536 120.41 140.453 78.7984 115.364 67.1658C90.2756 55.5332 65.8818 121.518 101.568 119.891C116.398 118.12 131.221 114.199 145.703 105.012" stroke="#293042" style="stroke:#293042;stroke:color(display-p3 0.1608 0.1882 0.2588);stroke-opacity:1;" stroke-width="2.25" stroke-dasharray="6 6"/>
<rect x="0.00256348" width="173.524" height="58.3398" rx="29.1699" fill="#272A31" style="fill:#272A31;fill:color(display-p3 0.1529 0.1647 0.1922);fill-opacity:1;"/>
<g opacity="0.4">
<rect x="24.7526" y="20.4312" width="111" height="4.5" rx="2.25" fill="#444954" style="fill:#444954;fill:color(display-p3 0.2667 0.2863 0.3294);fill-opacity:1;"/>
</g>
<g opacity="0.4">
<rect x="38.2526" y="33.9312" width="110.25" height="4.5" rx="2.25" fill="#444954" style="fill:#444954;fill:color(display-p3 0.2667 0.2863 0.3294);fill-opacity:1;"/>
</g>
<path d="M40.3918 71.0549L28.4246 54.6001L52.3589 54.6001L40.3918 71.0549Z" fill="#272A31" style="fill:#272A31;fill:color(display-p3 0.1529 0.1647 0.1922);fill-opacity:1;"/>
</svg>
